<mxfile host="Electron" modified="2024-01-25T12:00:00.000Z" agent="Mozilla/5.0" version="21.0.1" etag="your-etag" type="device">
  <diagram name="Modelo Conceptual LeanMaker" id="conceptual-model">
    <mxGraphModel dx="2400" dy="3200" grid="1" gridSize="10" guides="1" tooltips="1" connect="1" arrows="1" fold="1" page="1" pageScale="1" pageWidth="2400" pageHeight="3200" math="0" shadow="0" background="#ffffff">
      <root>
        <mxCell id="0"/>
        <mxCell id="1" parent="0"/>
        
        <!-- USUARIO (Entidad Base) -->
        <mxCell id="usuario" value="USUARIO" style="rounded=0;whiteSpace=wrap;html=1;fontSize=16;fontStyle=1" vertex="1" parent="1">
          <mxGeometry x="1000" y="200" width="160" height="60" as="geometry"/>
        </mxCell>
        
        <!-- Atributos de USUARIO -->
        <mxCell id="usuario_id" value="id_usuario" style="ellipse;whiteSpace=wrap;html=1;fontSize=14;fontStyle=4" vertex="1" parent="1">
          <mxGeometry x="800" y="100" width="120" height="60" as="geometry"/>
        </mxCell>
        <mxCell id="usuario_nombre" value="nombre" style="ellipse;whiteSpace=wrap;html=1;fontSize=14;" vertex="1" parent="1">
          <mxGeometry x="940" y="80" width="120" height="60" as="geometry"/>
        </mxCell>
        <mxCell id="usuario_apellido" value="apellido" style="ellipse;whiteSpace=wrap;html=1;fontSize=14;" vertex="1" parent="1">
          <mxGeometry x="1080" y="80" width="120" height="60" as="geometry"/>
        </mxCell>
        <mxCell id="usuario_email" value="email" style="ellipse;whiteSpace=wrap;html=1;fontSize=14;" vertex="1" parent="1">
          <mxGeometry x="1220" y="100" width="120" height="60" as="geometry"/>
        </mxCell>
        <mxCell id="usuario_password" value="contraseÃ±a" style="ellipse;whiteSpace=wrap;html=1;fontSize=14;" vertex="1" parent="1">
          <mxGeometry x="760" y="180" width="120" height="60" as="geometry"/>
        </mxCell>
        <mxCell id="usuario_rol" value="rol" style="ellipse;whiteSpace=wrap;html=1;fontSize=14;" vertex="1" parent="1">
          <mxGeometry x="1280" y="180" width="120" height="60" as="geometry"/>
        </mxCell>
        <mxCell id="usuario_estado" value="estado" style="ellipse;whiteSpace=wrap;html=1;fontSize=14;" vertex="1" parent="1">
          <mxGeometry x="760" y="260" width="120" height="60" as="geometry"/>
        </mxCell>
        <mxCell id="usuario_fecha_registro" value="fecha_registro" style="ellipse;whiteSpace=wrap;html=1;fontSize=14;" vertex="1" parent="1">
          <mxGeometry x="1280" y="260" width="120" height="60" as="geometry"/>
        </mxCell>

        <!-- Conexiones de atributos USUARIO -->
        <mxCell id="conn_usuario_id" value="" style="endArrow=none;html=1;rounded=0;exitX=1;exitY=1;exitDx=0;exitDy=0;entryX=0;entryY=0.5;entryDx=0;entryDy=0;" edge="1" parent="1" source="usuario_id" target="usuario">
          <mxGeometry width="50" height="50" relative="1" as="geometry"/>
        </mxCell>
        <mxCell id="conn_usuario_nombre" value="" style="endArrow=none;html=1;rounded=0;exitX=0.5;exitY=1;exitDx=0;exitDy=0;entryX=0.25;entryY=0;entryDx=0;entryDy=0;" edge="1" parent="1" source="usuario_nombre" target="usuario">
          <mxGeometry width="50" height="50" relative="1" as="geometry"/>
        </mxCell>
        <mxCell id="conn_usuario_apellido" value="" style="endArrow=none;html=1;rounded=0;exitX=0.5;exitY=1;exitDx=0;exitDy=0;entryX=0.75;entryY=0;entryDx=0;entryDy=0;" edge="1" parent="1" source="usuario_apellido" target="usuario">
          <mxGeometry width="50" height="50" relative="1" as="geometry"/>
        </mxCell>
        <mxCell id="conn_usuario_email" value="" style="endArrow=none;html=1;rounded=0;exitX=0;exitY=1;exitDx=0;exitDy=0;entryX=1;entryY=0.5;entryDx=0;entryDy=0;" edge="1" parent="1" source="usuario_email" target="usuario">
          <mxGeometry width="50" height="50" relative="1" as="geometry"/>
        </mxCell>
        <mxCell id="conn_usuario_password" value="" style="endArrow=none;html=1;rounded=0;exitX=1;exitY=0.5;exitDx=0;exitDy=0;entryX=0;entryY=0.25;entryDx=0;entryDy=0;" edge="1" parent="1" source="usuario_password" target="usuario">
          <mxGeometry width="50" height="50" relative="1" as="geometry"/>
        </mxCell>
        <mxCell id="conn_usuario_rol" value="" style="endArrow=none;html=1;rounded=0;exitX=0;exitY=0.5;exitDx=0;exitDy=0;entryX=1;entryY=0.25;entryDx=0;entryDy=0;" edge="1" parent="1" source="usuario_rol" target="usuario">
          <mxGeometry width="50" height="50" relative="1" as="geometry"/>
        </mxCell>
        <mxCell id="conn_usuario_estado" value="" style="endArrow=none;html=1;rounded=0;exitX=1;exitY=0.5;exitDx=0;exitDy=0;entryX=0;entryY=0.75;entryDx=0;entryDy=0;" edge="1" parent="1" source="usuario_estado" target="usuario">
          <mxGeometry width="50" height="50" relative="1" as="geometry"/>
        </mxCell>
        <mxCell id="conn_usuario_fecha" value="" style="endArrow=none;html=1;rounded=0;exitX=0;exitY=0.5;exitDx=0;exitDy=0;entryX=1;entryY=0.75;entryDx=0;entryDy=0;" edge="1" parent="1" source="usuario_fecha_registro" target="usuario">
          <mxGeometry width="50" height="50" relative="1" as="geometry"/>
        </mxCell>

        <!-- ESTUDIANTE -->
        <mxCell id="estudiante" value="ESTUDIANTE" style="rounded=0;whiteSpace=wrap;html=1;fontSize=16;fontStyle=1" vertex="1" parent="1">
          <mxGeometry x="600" y="400" width="160" height="60" as="geometry"/>
        </mxCell>

        <!-- Atributos de ESTUDIANTE -->
        <mxCell id="estudiante_id" value="id_estudiante" style="ellipse;whiteSpace=wrap;html=1;fontSize=14;fontStyle=4" vertex="1" parent="1">
          <mxGeometry x="400" y="300" width="120" height="60" as="geometry"/>
        </mxCell>
        <mxCell id="estudiante_carrera" value="carrera" style="ellipse;whiteSpace=wrap;html=1;fontSize=14;" vertex="1" parent="1">
          <mxGeometry x="540" y="280" width="120" height="60" as="geometry"/>
        </mxCell>
        <mxCell id="estudiante_semestre" value="semestre" style="ellipse;whiteSpace=wrap;html=1;fontSize=14;" vertex="1" parent="1">
          <mxGeometry x="680" y="280" width="120" height="60" as="geometry"/>
        </mxCell>
        <mxCell id="estudiante_gpa" value="gpa" style="ellipse;whiteSpace=wrap;html=1;fontSize=14;" vertex="1" parent="1">
          <mxGeometry x="820" y="280" width="120" height="60" as="geometry"/>
        </mxCell>
        <mxCell id="estudiante_total_horas" value="total_horas" style="ellipse;whiteSpace=wrap;html=1;fontSize=14;" vertex="1" parent="1">
          <mxGeometry x="360" y="380" width="120" height="60" as="geometry"/>
        </mxCell>
        <mxCell id="estudiante_estado" value="estado_actividad" style="ellipse;whiteSpace=wrap;html=1;fontSize=14;" vertex="1" parent="1">
          <mxGeometry x="360" y="460" width="120" height="60" as="geometry"/>
        </mxCell>
        <mxCell id="estudiante_strikes" value="strikes" style="ellipse;whiteSpace=wrap;html=1;fontSize=14;" vertex="1" parent="1">
          <mxGeometry x="400" y="540" width="120" height="60" as="geometry"/>
        </mxCell>
        <mxCell id="estudiante_cv" value="cv" style="ellipse;whiteSpace=wrap;html=1;fontSize=14;" vertex="1" parent="1">
          <mxGeometry x="540" y="560" width="120" height="60" as="geometry"/>
        </mxCell>
        <mxCell id="estudiante_certificado" value="certificado" style="ellipse;whiteSpace=wrap;html=1;fontSize=14;" vertex="1" parent="1">
          <mxGeometry x="680" y="560" width="120" height="60" as="geometry"/>
        </mxCell>
        <mxCell id="estudiante_biografia" value="biografia" style="ellipse;whiteSpace=wrap;html=1;fontSize=14;" vertex="1" parent="1">
          <mxGeometry x="820" y="540" width="120" height="60" as="geometry"/>
        </mxCell>

        <!-- Conexiones de atributos ESTUDIANTE -->
        <mxCell id="conn_estudiante_id" value="" style="endArrow=none;html=1;rounded=0;exitX=1;exitY=1;exitDx=0;exitDy=0;entryX=0;entryY=0;entryDx=0;entryDy=0;" edge="1" parent="1" source="estudiante_id" target="estudiante">
          <mxGeometry width="50" height="50" relative="1" as="geometry"/>
        </mxCell>
        <mxCell id="conn_estudiante_carrera" value="" style="endArrow=none;html=1;rounded=0;exitX=0.5;exitY=1;exitDx=0;exitDy=0;entryX=0.25;entryY=0;entryDx=0;entryDy=0;" edge="1" parent="1" source="estudiante_carrera" target="estudiante">
          <mxGeometry width="50" height="50" relative="1" as="geometry"/>
        </mxCell>
        <mxCell id="conn_estudiante_semestre" value="" style="endArrow=none;html=1;rounded=0;exitX=0.5;exitY=1;exitDx=0;exitDy=0;entryX=0.75;entryY=0;entryDx=0;entryDy=0;" edge="1" parent="1" source="estudiante_semestre" target="estudiante">
          <mxGeometry width="50" height="50" relative="1" as="geometry"/>
        </mxCell>
        <mxCell id="conn_estudiante_gpa" value="" style="endArrow=none;html=1;rounded=0;exitX=0;exitY=1;exitDx=0;exitDy=0;entryX=1;entryY=0;entryDx=0;entryDy=0;" edge="1" parent="1" source="estudiante_gpa" target="estudiante">
          <mxGeometry width="50" height="50" relative="1" as="geometry"/>
        </mxCell>
        <mxCell id="conn_estudiante_horas" value="" style="endArrow=none;html=1;rounded=0;exitX=1;exitY=0.5;exitDx=0;exitDy=0;entryX=0;entryY=0.25;entryDx=0;entryDy=0;" edge="1" parent="1" source="estudiante_total_horas" target="estudiante">
          <mxGeometry width="50" height="50" relative="1" as="geometry"/>
        </mxCell>
        <mxCell id="conn_estudiante_estado" value="" style="endArrow=none;html=1;rounded=0;exitX=1;exitY=0.5;exitDx=0;exitDy=0;entryX=0;entryY=0.75;entryDx=0;entryDy=0;" edge="1" parent="1" source="estudiante_estado" target="estudiante">
          <mxGeometry width="50" height="50" relative="1" as="geometry"/>
        </mxCell>
        <mxCell id="conn_estudiante_strikes" value="" style="endArrow=none;html=1;rounded=0;exitX=1;exitY=0;exitDx=0;exitDy=0;entryX=0;entryY=1;entryDx=0;entryDy=0;" edge="1" parent="1" source="estudiante_strikes" target="estudiante">
          <mxGeometry width="50" height="50" relative="1" as="geometry"/>
        </mxCell>
        <mxCell id="conn_estudiante_cv" value="" style="endArrow=none;html=1;rounded=0;exitX=0.5;exitY=0;exitDx=0;exitDy=0;entryX=0.25;entryY=1;entryDx=0;entryDy=0;" edge="1" parent="1" source="estudiante_cv" target="estudiante">
          <mxGeometry width="50" height="50" relative="1" as="geometry"/>
        </mxCell>
        <mxCell id="conn_estudiante_cert" value="" style="endArrow=none;html=1;rounded=0;exitX=0.5;exitY=0;exitDx=0;exitDy=0;entryX=0.75;entryY=1;entryDx=0;entryDy=0;" edge="1" parent="1" source="estudiante_certificado" target="estudiante">
          <mxGeometry width="50" height="50" relative="1" as="geometry"/>
        </mxCell>
        <mxCell id="conn_estudiante_bio" value="" style="endArrow=none;html=1;rounded=0;exitX=0;exitY=0;exitDx=0;exitDy=0;entryX=1;entryY=1;entryDx=0;entryDy=0;" edge="1" parent="1" source="estudiante_biografia" target="estudiante">
          <mxGeometry width="50" height="50" relative="1" as="geometry"/>
        </mxCell>

        <!-- EMPRESA -->
        <mxCell id="empresa" value="EMPRESA" style="rounded=0;whiteSpace=wrap;html=1;fontSize=16;fontStyle=1" vertex="1" parent="1">
          <mxGeometry x="1000" y="400" width="160" height="60" as="geometry"/>
        </mxCell>

        <!-- Atributos de EMPRESA -->
        <mxCell id="empresa_id" value="id_empresa" style="ellipse;whiteSpace=wrap;html=1;fontSize=14;fontStyle=4" vertex="1" parent="1">
          <mxGeometry x="800" y="300" width="120" height="60" as="geometry"/>
        </mxCell>
        <mxCell id="empresa_nombre" value="nombre_empresa" style="ellipse;whiteSpace=wrap;html=1;fontSize=14;" vertex="1" parent="1">
          <mxGeometry x="940" y="280" width="120" height="60" as="geometry"/>
        </mxCell>
        <mxCell id="empresa_rubro" value="rubro" style="ellipse;whiteSpace=wrap;html=1;fontSize=14;" vertex="1" parent="1">
          <mxGeometry x="1080" y="280" width="120" height="60" as="geometry"/>
        </mxCell>
        <mxCell id="empresa_ubicacion" value="ubicacion" style="ellipse;whiteSpace=wrap;html=1;fontSize=14;" vertex="1" parent="1">
          <mxGeometry x="1220" y="300" width="120" height="60" as="geometry"/>
        </mxCell>
        <mxCell id="empresa_contacto" value="contacto" style="ellipse;whiteSpace=wrap;html=1;fontSize=14;" vertex="1" parent="1">
          <mxGeometry x="760" y="380" width="120" height="60" as="geometry"/>
        </mxCell>
        <mxCell id="empresa_telefono" value="telefono" style="ellipse;whiteSpace=wrap;html=1;fontSize=14;" vertex="1" parent="1">
          <mxGeometry x="760" y="460" width="120" height="60" as="geometry"/>
        </mxCell>
        <mxCell id="empresa_estado" value="estado" style="ellipse;whiteSpace=wrap;html=1;fontSize=14;" vertex="1" parent="1">
          <mxGeometry x="800" y="540" width="120" height="60" as="geometry"/>
        </mxCell>
        <mxCell id="empresa_verificada" value="verificada" style="ellipse;whiteSpace=wrap;html=1;fontSize=14;" vertex="1" parent="1">
          <mxGeometry x="940" y="560" width="120" height="60" as="geometry"/>
        </mxCell>
        <mxCell id="empresa_descripcion" value="descripcion" style="ellipse;whiteSpace=wrap;html=1;fontSize=14;" vertex="1" parent="1">
          <mxGeometry x="1080" y="560" width="120" height="60" as="geometry"/>
        </mxCell>
        <mxCell id="empresa_website" value="website" style="ellipse;whiteSpace=wrap;html=1;fontSize=14;" vertex="1" parent="1">
          <mxGeometry x="1220" y="540" width="120" height="60" as="geometry"/>
        </mxCell>

        <!-- Conexiones de atributos EMPRESA -->
        <mxCell id="conn_empresa_id" value="" style="endArrow=none;html=1;rounded=0;exitX=1;exitY=1;exitDx=0;exitDy=0;entryX=0;entryY=0;entryDx=0;entryDy=0;" edge="1" parent="1" source="empresa_id" target="empresa">
          <mxGeometry width="50" height="50" relative="1" as="geometry"/>
        </mxCell>
        <mxCell id="conn_empresa_nombre" value="" style="endArrow=none;html=1;rounded=0;exitX=0.5;exitY=1;exitDx=0;exitDy=0;entryX=0.25;entryY=0;entryDx=0;entryDy=0;" edge="1" parent="1" source="empresa_nombre" target="empresa">
          <mxGeometry width="50" height="50" relative="1" as="geometry"/>
        </mxCell>
        <mxCell id="conn_empresa_rubro" value="" style="endArrow=none;html=1;rounded=0;exitX=0.5;exitY=1;exitDx=0;exitDy=0;entryX=0.75;entryY=0;entryDx=0;entryDy=0;" edge="1" parent="1" source="empresa_rubro" target="empresa">
          <mxGeometry width="50" height="50" relative="1" as="geometry"/>
        </mxCell>
        <mxCell id="conn_empresa_ubicacion" value="" style="endArrow=none;html=1;rounded=0;exitX=0;exitY=1;exitDx=0;exitDy=0;entryX=1;entryY=0;entryDx=0;entryDy=0;" edge="1" parent="1" source="empresa_ubicacion" target="empresa">
          <mxGeometry width="50" height="50" relative="1" as="geometry"/>
        </mxCell>
        <mxCell id="conn_empresa_contacto" value="" style="endArrow=none;html=1;rounded=0;exitX=1;exitY=0.5;exitDx=0;exitDy=0;entryX=0;entryY=0.25;entryDx=0;entryDy=0;" edge="1" parent="1" source="empresa_contacto" target="empresa">
          <mxGeometry width="50" height="50" relative="1" as="geometry"/>
        </mxCell>
        <mxCell id="conn_empresa_telefono" value="" style="endArrow=none;html=1;rounded=0;exitX=1;exitY=0.5;exitDx=0;exitDy=0;entryX=0;entryY=0.75;entryDx=0;entryDy=0;" edge="1" parent="1" source="empresa_telefono" target="empresa">
          <mxGeometry width="50" height="50" relative="1" as="geometry"/>
        </mxCell>
        <mxCell id="conn_empresa_estado" value="" style="endArrow=none;html=1;rounded=0;exitX=1;exitY=0;exitDx=0;exitDy=0;entryX=0;entryY=1;entryDx=0;entryDy=0;" edge="1" parent="1" source="empresa_estado" target="empresa">
          <mxGeometry width="50" height="50" relative="1" as="geometry"/>
        </mxCell>
        <mxCell id="conn_empresa_verificada" value="" style="endArrow=none;html=1;rounded=0;exitX=0.5;exitY=0;exitDx=0;exitDy=0;entryX=0.25;entryY=1;entryDx=0;entryDy=0;" edge="1" parent="1" source="empresa_verificada" target="empresa">
          <mxGeometry width="50" height="50" relative="1" as="geometry"/>
        </mxCell>
        <mxCell id="conn_empresa_descripcion" value="" style="endArrow=none;html=1;rounded=0;exitX=0.5;exitY=0;exitDx=0;exitDy=0;entryX=0.75;entryY=1;entryDx=0;entryDy=0;" edge="1" parent="1" source="empresa_descripcion" target="empresa">
          <mxGeometry width="50" height="50" relative="1" as="geometry"/>
        </mxCell>
        <mxCell id="conn_empresa_website" value="" style="endArrow=none;html=1;rounded=0;exitX=0;exitY=0;exitDx=0;exitDy=0;entryX=1;entryY=1;entryDx=0;entryDy=0;" edge="1" parent="1" source="empresa_website" target="empresa">
          <mxGeometry width="50" height="50" relative="1" as="geometry"/>
        </mxCell>

        <!-- ADMINISTRADOR -->
        <mxCell id="administrador" value="ADMINISTRADOR" style="rounded=0;whiteSpace=wrap;html=1;fontSize=16;fontStyle=1" vertex="1" parent="1">
          <mxGeometry x="1400" y="400" width="160" height="60" as="geometry"/>
        </mxCell>

        <!-- Atributos de ADMINISTRADOR -->
        <mxCell id="admin_id" value="id_admin" style="ellipse;whiteSpace=wrap;html=1;fontSize=14;fontStyle=4" vertex="1" parent="1">
          <mxGeometry x="1200" y="300" width="120" height="60" as="geometry"/>
        </mxCell>
        <mxCell id="admin_departamento" value="departamento" style="ellipse;whiteSpace=wrap;html=1;fontSize=14;" vertex="1" parent="1">
          <mxGeometry x="1340" y="280" width="120" height="60" as="geometry"/>
        </mxCell>
        <mxCell id="admin_nivel_acceso" value="nivel_acceso" style="ellipse;whiteSpace=wrap;html=1;fontSize=14;" vertex="1" parent="1">
          <mxGeometry x="1480" y="280" width="120" height="60" as="geometry"/>
        </mxCell>
        <mxCell id="admin_permisos" value="permisos" style="ellipse;whiteSpace=wrap;html=1;fontSize=14;" vertex="1" parent="1">
          <mxGeometry x="1620" y="300" width="120" height="60" as="geometry"/>
        </mxCell>
        <mxCell id="admin_ultimo_acceso" value="ultimo_acceso" style="ellipse;whiteSpace=wrap;html=1;fontSize=14;" vertex="1" parent="1">
          <mxGeometry x="1620" y="380" width="120" height="60" as="geometry"/>
        </mxCell>
        <mxCell id="admin_area" value="area" style="ellipse;whiteSpace=wrap;html=1;fontSize=14;" vertex="1" parent="1">
          <mxGeometry x="1620" y="460" width="120" height="60" as="geometry"/>
        </mxCell>
        <mxCell id="admin_estado" value="estado" style="ellipse;whiteSpace=wrap;html=1;fontSize=14;" vertex="1" parent="1">
          <mxGeometry x="1200" y="540" width="120" height="60" as="geometry"/>
        </mxCell>

        <!-- Conexiones de atributos ADMINISTRADOR -->
        <mxCell id="conn_admin_id" value="" style="endArrow=none;html=1;rounded=0;exitX=1;exitY=1;exitDx=0;exitDy=0;entryX=0;entryY=0;entryDx=0;entryDy=0;" edge="1" parent="1" source="admin_id" target="administrador">
          <mxGeometry width="50" height="50" relative="1" as="geometry"/>
        </mxCell>
        <mxCell id="conn_admin_depto" value="" style="endArrow=none;html=1;rounded=0;exitX=0.5;exitY=1;exitDx=0;exitDy=0;entryX=0.25;entryY=0;entryDx=0;entryDy=0;" edge="1" parent="1" source="admin_departamento" target="administrador">
          <mxGeometry width="50" height="50" relative="1" as="geometry"/>
        </mxCell>
        <mxCell id="conn_admin_nivel" value="" style="endArrow=none;html=1;rounded=0;exitX=0.5;exitY=1;exitDx=0;exitDy=0;entryX=0.75;entryY=0;entryDx=0;entryDy=0;" edge="1" parent="1" source="admin_nivel_acceso" target="administrador">
          <mxGeometry width="50" height="50" relative="1" as="geometry"/>
        </mxCell>
        <mxCell id="conn_admin_permisos" value="" style="endArrow=none;html=1;rounded=0;exitX=0;exitY=1;exitDx=0;exitDy=0;entryX=1;entryY=0;entryDx=0;entryDy=0;" edge="1" parent="1" source="admin_permisos" target="administrador">
          <mxGeometry width="50" height="50" relative="1" as="geometry"/>
        </mxCell>
        <mxCell id="conn_admin_acceso" value="" style="endArrow=none;html=1;rounded=0;exitX=1;exitY=0.5;exitDx=0;exitDy=0;entryX=0;entryY=0.25;entryDx=0;entryDy=0;" edge="1" parent="1" source="admin_ultimo_acceso" target="administrador">
          <mxGeometry width="50" height="50" relative="1" as="geometry"/>
        </mxCell>
        <mxCell id="conn_admin_area" value="" style="endArrow=none;html=1;rounded=0;exitX=1;exitY=0.5;exitDx=0;exitDy=0;entryX=0;entryY=0.75;entryDx=0;entryDy=0;" edge="1" parent="1" source="admin_area" target="administrador">
          <mxGeometry width="50" height="50" relative="1" as="geometry"/>
        </mxCell>
        <mxCell id="conn_admin_estado" value="" style="endArrow=none;html=1;rounded=0;exitX=1;exitY=0;exitDx=0;exitDy=0;entryX=0;entryY=1;entryDx=0;entryDy=0;" edge="1" parent="1" source="admin_estado" target="administrador">
          <mxGeometry width="50" height="50" relative="1" as="geometry"/>
        </mxCell>

        <!-- Inheritance Relationships -->
        <!-- Triangle for inheritance -->
        <mxCell id="inheritance_triangle" value="" style="triangle;whiteSpace=wrap;html=1;rotation=90;fillColor=#000000;" vertex="1" parent="1">
          <mxGeometry x="1060" y="320" width="40" height="60" as="geometry"/>
        </mxCell>

        <!-- Lines connecting Usuario with inheritance triangle -->
        <mxCell id="conn_usuario_inheritance" value="" style="endArrow=none;html=1;rounded=0;exitX=0.5;exitY=1;exitDx=0;exitDy=0;entryX=0;entryY=0.5;entryDx=0;entryDy=0;" edge="1" parent="1" source="usuario" target="inheritance_triangle">
          <mxGeometry width="50" height="50" relative="1" as="geometry"/>
        </mxCell>

        <!-- Lines connecting child entities with inheritance triangle -->
        <mxCell id="conn_estudiante_inheritance" value="" style="endArrow=none;html=1;rounded=0;exitX=0.5;exitY=0;exitDx=0;exitDy=0;entryX=1;entryY=0.25;entryDx=0;entryDy=0;" edge="1" parent="1" source="estudiante" target="inheritance_triangle">
          <mxGeometry width="50" height="50" relative="1" as="geometry"/>
        </mxCell>

        <mxCell id="conn_empresa_inheritance" value="" style="endArrow=none;html=1;rounded=0;exitX=0.5;exitY=0;exitDx=0;exitDy=0;entryX=1;entryY=0.5;entryDx=0;entryDy=0;" edge="1" parent="1" source="empresa" target="inheritance_triangle">
          <mxGeometry width="50" height="50" relative="1" as="geometry"/>
        </mxCell>

        <mxCell id="conn_admin_inheritance" value="" style="endArrow=none;html=1;rounded=0;exitX=0.5;exitY=0;exitDx=0;exitDy=0;entryX=1;entryY=0.75;entryDx=0;entryDy=0;" edge="1" parent="1" source="administrador" target="inheritance_triangle">
          <mxGeometry width="50" height="50" relative="1" as="geometry"/>
        </mxCell>

        

        <mxCell id="label_exclusive" value="Exclusiva" style="text;html=1;strokeColor=none;fillColor=none;align=center;verticalAlign=middle;whiteSpace=wrap;rounded=0;fontSize=14;fontStyle=2" vertex="1" parent="1">
          <mxGeometry x="1110" y="290" width="60" height="30" as="geometry"/>
        </mxCell>

        <!-- PROYECTO -->
        <mxCell id="proyecto" value="PROYECTO" style="rounded=0;whiteSpace=wrap;html=1;fontSize=16;fontStyle=1" vertex="1" parent="1">
          <mxGeometry x="1000" y="700" width="160" height="60" as="geometry"/>
        </mxCell>

        <!-- Atributos de PROYECTO -->
        <mxCell id="proyecto_id" value="id_proyecto" style="ellipse;whiteSpace=wrap;html=1;fontSize=14;fontStyle=4" vertex="1" parent="1">
          <mxGeometry x="800" y="600" width="120" height="60" as="geometry"/>
        </mxCell>
        <mxCell id="proyecto_nombre" value="nombre" style="ellipse;whiteSpace=wrap;html=1;fontSize=14;" vertex="1" parent="1">
          <mxGeometry x="940" y="580" width="120" height="60" as="geometry"/>
        </mxCell>
        <mxCell id="proyecto_descripcion" value="descripcion" style="ellipse;whiteSpace=wrap;html=1;fontSize=14;" vertex="1" parent="1">
          <mxGeometry x="1080" y="580" width="120" height="60" as="geometry"/>
        </mxCell>
        <mxCell id="proyecto_estado" value="estado" style="ellipse;whiteSpace=wrap;html=1;fontSize=14;" vertex="1" parent="1">
          <mxGeometry x="1220" y="600" width="120" height="60" as="geometry"/>
        </mxCell>
        <mxCell id="proyecto_fecha_inicio" value="fecha_inicio" style="ellipse;whiteSpace=wrap;html=1;fontSize=14;" vertex="1" parent="1">
          <mxGeometry x="760" y="680" width="120" height="60" as="geometry"/>
        </mxCell>
        <mxCell id="proyecto_fecha_fin" value="fecha_fin" style="ellipse;whiteSpace=wrap;html=1;fontSize=14;" vertex="1" parent="1">
          <mxGeometry x="760" y="760" width="120" height="60" as="geometry"/>
        </mxCell>
        <mxCell id="proyecto_requisitos" value="requisitos" style="ellipse;whiteSpace=wrap;html=1;fontSize=14;" vertex="1" parent="1">
          <mxGeometry x="940" y="820" width="120" height="60" as="geometry"/>
        </mxCell>
        <mxCell id="proyecto_cupos" value="cupos" style="ellipse;whiteSpace=wrap;html=1;fontSize=14;" vertex="1" parent="1">
          <mxGeometry x="1080" y="820" width="120" height="60" as="geometry"/>
        </mxCell>

        <!-- POSTULACIÃN (Entidad Asociativa) -->
        <mxCell id="postulacion" value="POSTULACIÃN" style="shape=rhombus;whiteSpace=wrap;html=1;fontSize=16;fontStyle=1" vertex="1" parent="1">
          <mxGeometry x="800" y="900" width="200" height="100" as="geometry"/>
        </mxCell>

        <!-- Atributos de POSTULACIÃN -->
        <mxCell id="postulacion_fecha" value="fecha_postulacion" style="ellipse;whiteSpace=wrap;html=1;fontSize=14;" vertex="1" parent="1">
          <mxGeometry x="600" y="920" width="120" height="60" as="geometry"/>
        </mxCell>
        <mxCell id="postulacion_estado" value="estado_postulacion" style="ellipse;whiteSpace=wrap;html=1;fontSize=14;" vertex="1" parent="1">
          <mxGeometry x="1080" y="920" width="120" height="60" as="geometry"/>
        </mxCell>

        <!-- EVALUACIÃN -->
        <mxCell id="evaluacion" value="EVALUACIÃN" style="rounded=0;whiteSpace=wrap;html=1;fontSize=16;fontStyle=1" vertex="1" parent="1">
          <mxGeometry x="1400" y="900" width="160" height="60" as="geometry"/>
        </mxCell>

        <!-- Atributos de EVALUACIÃN -->
        <mxCell id="evaluacion_id" value="id_evaluacion" style="ellipse;whiteSpace=wrap;html=1;fontSize=14;fontStyle=4" vertex="1" parent="1">
          <mxGeometry x="1200" y="800" width="120" height="60" as="geometry"/>
        </mxCell>
        <mxCell id="evaluacion_puntaje" value="puntaje" style="ellipse;whiteSpace=wrap;html=1;fontSize=14;" vertex="1" parent="1">
          <mxGeometry x="1340" y="780" width="120" height="60" as="geometry"/>
        </mxCell>
        <mxCell id="evaluacion_comentarios" value="comentarios" style="ellipse;whiteSpace=wrap;html=1;fontSize=14;" vertex="1" parent="1">
          <mxGeometry x="1480" y="780" width="120" height="60" as="geometry"/>
        </mxCell>
        <mxCell id="evaluacion_fecha" value="fecha" style="ellipse;whiteSpace=wrap;html=1;fontSize=14;" vertex="1" parent="1">
          <mxGeometry x="1620" y="800" width="120" height="60" as="geometry"/>
        </mxCell>

        <!-- NOTIFICACIÃN -->
        <mxCell id="notificacion" value="NOTIFICACIÃN" style="rounded=0;whiteSpace=wrap;html=1;fontSize=16;fontStyle=1" vertex="1" parent="1">
          <mxGeometry x="1400" y="600" width="160" height="60" as="geometry"/>
        </mxCell>

        <!-- Atributos de NOTIFICACIÃN -->
        <mxCell id="notificacion_id" value="id_notificacion" style="ellipse;whiteSpace=wrap;html=1;fontSize=14;fontStyle=4" vertex="1" parent="1">
          <mxGeometry x="1200" y="500" width="120" height="60" as="geometry"/>
        </mxCell>
        <mxCell id="notificacion_mensaje" value="mensaje" style="ellipse;whiteSpace=wrap;html=1;fontSize=14;" vertex="1" parent="1">
          <mxGeometry x="1340" y="480" width="120" height="60" as="geometry"/>
        </mxCell>
        <mxCell id="notificacion_leida" value="leida" style="ellipse;whiteSpace=wrap;html=1;fontSize=14;" vertex="1" parent="1">
          <mxGeometry x="1480" y="480" width="120" height="60" as="geometry"/>
        </mxCell>
        <mxCell id="notificacion_fecha" value="fecha" style="ellipse;whiteSpace=wrap;html=1;fontSize=14;" vertex="1" parent="1">
          <mxGeometry x="1620" y="500" width="120" height="60" as="geometry"/>
        </mxCell>

        <!-- Relaciones -->
        <!-- Herencia -->
        <mxCell id="herencia_triangle" value="" style="triangle;whiteSpace=wrap;html=1;rotation=90;fillColor=#000000;" vertex="1" parent="1">
          <mxGeometry x="1060" y="320" width="40" height="60" as="geometry"/>
        </mxCell>

        <!-- Conexiones de herencia -->
        <mxCell id="conn_usuario_herencia" value="" style="endArrow=none;html=1;rounded=0;exitX=0.5;exitY=1;exitDx=0;exitDy=0;entryX=0;entryY=0.5;entryDx=0;entryDy=0;" edge="1" parent="1" source="usuario" target="herencia_triangle">
          <mxGeometry relative="1" as="geometry"/>
        </mxCell>

        <mxCell id="conn_estudiante_herencia" value="" style="endArrow=none;html=1;rounded=0;exitX=0.5;exitY=0;exitDx=0;exitDy=0;entryX=1;entryY=0.25;entryDx=0;entryDy=0;" edge="1" parent="1" source="estudiante" target="herencia_triangle">
          <mxGeometry relative="1" as="geometry"/>
        </mxCell>

        <mxCell id="conn_empresa_herencia" value="" style="endArrow=none;html=1;rounded=0;exitX=0.5;exitY=0;exitDx=0;exitDy=0;entryX=1;entryY=0.5;entryDx=0;entryDy=0;" edge="1" parent="1" source="empresa" target="herencia_triangle">
          <mxGeometry relative="1" as="geometry"/>
        </mxCell>

        <mxCell id="conn_admin_herencia" value="" style="endArrow=none;html=1;rounded=0;exitX=0.5;exitY=0;exitDx=0;exitDy=0;entryX=1;entryY=0.75;entryDx=0;entryDy=0;" edge="1" parent="1" source="administrador" target="herencia_triangle">
          <mxGeometry relative="1" as="geometry"/>
        </mxCell>

        <!-- Etiquetas de herencia -->
        <mxCell id="label_total_herencia" value="Total" style="text;html=1;strokeColor=none;fillColor=none;align=center;verticalAlign=middle;whiteSpace=wrap;rounded=0;fontSize=14;fontStyle=2" vertex="1" parent="1">
          <mxGeometry x="1050" y="290" width="60" height="30" as="geometry"/>
        </mxCell>

        <mxCell id="label_exclusiva" value="Exclusiva" style="text;html=1;strokeColor=none;fillColor=none;align=center;verticalAlign=middle;whiteSpace=wrap;rounded=0;fontSize=14;fontStyle=2" vertex="1" parent="1">
          <mxGeometry x="1110" y="290" width="60" height="30" as="geometry"/>
        </mxCell>

        <!-- RelaciÃ³n Empresa-Proyecto -->
        <mxCell id="rel_empresa_proyecto" value="" style="endArrow=none;html=1;rounded=0;exitX=0.5;exitY=1;exitDx=0;exitDy=0;entryX=0.5;entryY=0;entryDx=0;entryDy=0;" edge="1" parent="1" source="empresa" target="proyecto">
          <mxGeometry relative="1" as="geometry"/>
        </mxCell>
        <mxCell id="card_empresa_proyecto" value="1" style="text;html=1;strokeColor=none;fillColor=none;align=center;verticalAlign=middle;whiteSpace=wrap;rounded=0;fontSize=14;" vertex="1" parent="1">
          <mxGeometry x="1080" y="460" width="20" height="20" as="geometry"/>
        </mxCell>
        <mxCell id="card_proyecto_empresa" value="N" style="text;html=1;strokeColor=none;fillColor=none;align=center;verticalAlign=middle;whiteSpace=wrap;rounded=0;fontSize=14;" vertex="1" parent="1">
          <mxGeometry x="1080" y="680" width="20" height="20" as="geometry"/>
        </mxCell>

        <!-- RelaciÃ³n Estudiante-PostulaciÃ³n-Proyecto -->
        <mxCell id="rel_estudiante_postulacion" value="" style="endArrow=none;html=1;rounded=0;exitX=0.5;exitY=1;exitDx=0;exitDy=0;entryX=0;entryY=0.5;entryDx=0;entryDy=0;" edge="1" parent="1" source="estudiante" target="postulacion">
          <mxGeometry relative="1" as="geometry"/>
        </mxCell>
        <mxCell id="rel_proyecto_postulacion" value="" style="endArrow=none;html=1;rounded=0;exitX=0.5;exitY=1;exitDx=0;exitDy=0;entryX=1;entryY=0.5;entryDx=0;entryDy=0;" edge="1" parent="1" source="proyecto" target="postulacion">
          <mxGeometry relative="1" as="geometry"/>
        </mxCell>
        <mxCell id="card_estudiante_postulacion" value="1" style="text;html=1;strokeColor=none;fillColor=none;align=center;verticalAlign=middle;whiteSpace=wrap;rounded=0;fontSize=14;" vertex="1" parent="1">
          <mxGeometry x="680" y="460" width="20" height="20" as="geometry"/>
        </mxCell>
        <mxCell id="card_postulacion_estudiante" value="N" style="text;html=1;strokeColor=none;fillColor=none;align=center;verticalAlign=middle;whiteSpace=wrap;rounded=0;fontSize=14;" vertex="1" parent="1">
          <mxGeometry x="780" y="880" width="20" height="20" as="geometry"/>
        </mxCell>
        <mxCell id="card_proyecto_postulacion" value="1" style="text;html=1;strokeColor=none;fillColor=none;align=center;verticalAlign=middle;whiteSpace=wrap;rounded=0;fontSize=14;" vertex="1" parent="1">
          <mxGeometry x="1080" y="760" width="20" height="20" as="geometry"/>
        </mxCell>
        <mxCell id="card_postulacion_proyecto" value="N" style="text;html=1;strokeColor=none;fillColor=none;align=center;verticalAlign=middle;whiteSpace=wrap;rounded=0;fontSize=14;" vertex="1" parent="1">
          <mxGeometry x="1000" y="880" width="20" height="20" as="geometry"/>
        </mxCell>

        <!-- RelaciÃ³n Usuario-NotificaciÃ³n -->
        <mxCell id="rel_usuario_notificacion" value="" style="endArrow=none;html=1;rounded=0;exitX=1;exitY=0.5;exitDx=0;exitDy=0;entryX=0;entryY=0.5;entryDx=0;entryDy=0;" edge="1" parent="1" source="usuario" target="notificacion">
          <mxGeometry relative="1" as="geometry"/>
        </mxCell>
        <mxCell id="card_usuario_notificacion" value="1" style="text;html=1;strokeColor=none;fillColor=none;align=center;verticalAlign=middle;whiteSpace=wrap;rounded=0;fontSize=14;" vertex="1" parent="1">
          <mxGeometry x="1160" y="220" width="20" height="20" as="geometry"/>
        </mxCell>
        <mxCell id="card_notificacion_usuario" value="N" style="text;html=1;strokeColor=none;fillColor=none;align=center;verticalAlign=middle;whiteSpace=wrap;rounded=0;fontSize=14;" vertex="1" parent="1">
          <mxGeometry x="1380" y="580" width="20" height="20" as="geometry"/>
        </mxCell>

        <!-- RelaciÃ³n EvaluaciÃ³n -->
        <mxCell id="rel_estudiante_evaluacion" value="" style="endArrow=none;html=1;rounded=0;exitX=1;exitY=0.5;exitDx=0;exitDy=0;entryX=0;entryY=0.5;entryDx=0;entryDy=0;" edge="1" parent="1" source="estudiante" target="evaluacion">
          <mxGeometry relative="1" as="geometry"/>
        </mxCell>
        <mxCell id="rel_proyecto_evaluacion" value="" style="endArrow=none;html=1;rounded=0;exitX=1;exitY=0.5;exitDx=0;exitDy=0;entryX=0;entryY=0.5;entryDx=0;entryDy=0;" edge="1" parent="1" source="proyecto" target="evaluacion">
          <mxGeometry relative="1" as="geometry"/>
        </mxCell>
        <mxCell id="rel_empresa_evaluacion" value="" style="endArrow=none;html=1;rounded=0;exitX=1;exitY=0.5;exitDx=0;exitDy=0;entryX=0;entryY=0.5;entryDx=0;entryDy=0;" edge="1" parent="1" source="empresa" target="evaluacion">
          <mxGeometry relative="1" as="geometry"/>
        </mxCell>

      </root>
    </mxGraphModel>
  </diagram>
</mxfile> 